<?xml version="1.0" encoding="UTF-8" standalone="no"?>
<svg
   version="1.1"
   id="svg833"
   xml:space="preserve"
   width="2240"
   height="1733.3333"
   viewBox="0 0 2240 1733.3333"
   sodipodi:docname="ODAP_summary_v7.svg"
   inkscape:version="1.1-dev (0486c1a, 2020-10-10)"
   xmlns:inkscape="http://www.inkscape.org/namespaces/inkscape"
   xmlns:sodipodi="http://sodipodi.sourceforge.net/DTD/sodipodi-0.dtd"
   xmlns="http://www.w3.org/2000/svg"
   xmlns:svg="http://www.w3.org/2000/svg"
   xmlns:rdf="http://www.w3.org/1999/02/22-rdf-syntax-ns#"
   xmlns:cc="http://creativecommons.org/ns#"
   xmlns:dc="http://purl.org/dc/elements/1.1/"><metadata
     id="metadata839"><rdf:RDF><cc:Work
         rdf:about=""><dc:format>image/svg+xml</dc:format><dc:type
           rdf:resource="http://purl.org/dc/dcmitype/StillImage" /><dc:title /></cc:Work></rdf:RDF></metadata><defs
     id="defs837"><clipPath
       clipPathUnits="userSpaceOnUse"
       id="clipPath851"><path
         d="M 0,0 H 1680 V 1300 H 0 Z"
         id="path849" /></clipPath></defs><sodipodi:namedview
     pagecolor="#ffffff"
     bordercolor="#666666"
     borderopacity="1"
     objecttolerance="10"
     gridtolerance="10"
     guidetolerance="10"
     inkscape:pageopacity="0"
     inkscape:pageshadow="2"
     inkscape:window-width="2560"
     inkscape:window-height="1395"
     id="namedview835"
     showgrid="false"
     inkscape:zoom="0.56733472"
     inkscape:cx="1240.89"
     inkscape:cy="853.99321"
     inkscape:window-x="0"
     inkscape:window-y="23"
     inkscape:window-maximized="0"
     inkscape:current-layer="g841"
     inkscape:document-rotation="0" /><g
     id="g841"
     inkscape:groupmode="layer"
     inkscape:label="ODAP_summary_v5"
     transform="matrix(1.3333333,0,0,-1.3333333,0,1733.3333)"><g
       id="g843" /><g
       id="g859"
       transform="matrix(1,0,0,-1,213,1127)"><path
         d="M 492.5908,606 H 481.4092 V 502.0568 H 466.5 L 487,469 l 20.5,33.0568 h -14.9092 z"
         style="fill:none;stroke:#000000;stroke-width:0.5;stroke-linecap:round;stroke-linejoin:round;stroke-miterlimit:10;stroke-dasharray:none;stroke-opacity:1"
         id="path861"
         sodipodi:nodetypes="cccccccc" /></g><path
       d="m 521,289.6096 h 577 v 238 H 521 Z"
       style="fill:#ffffff;fill-opacity:1;fill-rule:nonzero;stroke:none"
       id="path863" /><g
       id="g865"
       transform="matrix(1,0,0,-1,438,1127)"><path
         d="m 83,599.3904 h 577 v 238 H 83 Z"
         style="fill:none;stroke:#000000;stroke-width:6;stroke-linecap:round;stroke-linejoin:round;stroke-miterlimit:10;stroke-dasharray:none;stroke-opacity:1"
         id="path867" /></g><path
       d="m 1460.5,857.8946 h 217 v 149 h -217 z"
       style="fill:#ffffff;fill-opacity:1;fill-rule:nonzero;stroke:none"
       id="path869" /><g
       id="g871"
       transform="matrix(1,0,0,-1,438,1127)"><path
         d="m 1022.5,120.1054 h 217 v 149 h -217 z"
         style="fill:none;stroke:#000000;stroke-width:5;stroke-linecap:round;stroke-linejoin:round;stroke-miterlimit:10;stroke-dasharray:none;stroke-opacity:1"
         id="path873" /></g><g
       id="g875"
       transform="matrix(1,0,0,-1,438,1127)"><text
         transform="translate(1031.144,172.9334)"
         style="font-variant:normal;font-weight:normal;font-size:16px;font-family:'Helvetica Neue';-inkscape-font-specification:HelveticaNeue;writing-mode:lr-tb;fill:#000000;fill-opacity:1;fill-rule:nonzero;stroke:none"
         id="text879"><tspan
           x="0 9.776 18.063999 23.104 31.695999 37.312 46.208 54.799999 58.352001 62.799999 71.391998 80.879997 90.367996 95.407997 104.592 112.592 121.184 130.672 135.12 146.672 157.34399 161.79201 170.976 181.936 191.71201 199.71201"
           y="0"
           sodipodi:role="line"
           id="tspan877">External approved UK TREs </tspan></text></g><g
       id="g881"
       transform="matrix(1,0,0,-1,438,1127)"><text
         transform="translate(1068.768,191.3814)"
         style="font-variant:normal;font-weight:normal;font-size:16px;font-family:'Helvetica Neue';-inkscape-font-specification:HelveticaNeue;writing-mode:lr-tb;fill:#000000;fill-opacity:1;fill-rule:nonzero;stroke:none"
         id="text885"><tspan
           x="0 4.1440001 12.736 17.184 26.368 30.816 35.264 47.424 56.911999 65.503998 74.400002 78.848 86.848 95.440002 100.176 108.768 112.32 120.32"
           y="0"
           sodipodi:role="line"
           id="tspan883">(e.g. Open safely)</tspan></text></g><g
       id="g887"
       transform="matrix(1,0,0,-1,438,1127)"><text
         transform="translate(1034.992,227.8294)"
         style="font-variant:normal;font-weight:normal;font-size:16px;font-family:'Helvetica Neue';-inkscape-font-specification:HelveticaNeue;writing-mode:lr-tb;fill:#000000;fill-opacity:1;fill-rule:nonzero;stroke:none"
         id="text891"><tspan
           x="0 11.552 22.224001 26.672001 37.040001 45.936001 55.424 58.976002 62.528 71.120003 75.568001 87.120003 95.711998 104.304 107.856 112.896 121.792 126.24 136.608 145.79201 154.384 163.28 171.87199 175.424 184.01601 192.01601"
           y="0"
           sodipodi:role="line"
           id="tspan889">UK Public Health Agencies </tspan></text></g><path
       d="m 1212.5,838.0946 v 81.6 c 0,5.6304 35.168,10.2 78.5,10.2 43.332,0 78.5,-4.5696 78.5,-10.2 v -81.6 c 0,-5.6304 -35.168,-10.2 -78.5,-10.2 -43.332,0 -78.5,4.5696 -78.5,10.2"
       style="fill:#ffffff;fill-opacity:1;fill-rule:nonzero;stroke:none"
       id="path893" /><g
       id="g895"
       transform="matrix(1,0,0,-1,438,1127)"><path
         d="m 774.5,288.9054 v -81.6 c 0,-5.6304 35.168,-10.2 78.5,-10.2 43.332,0 78.5,4.5696 78.5,10.2 v 81.6 c 0,5.6304 -35.168,10.2 -78.5,10.2 -43.332,0 -78.5,-4.5696 -78.5,-10.2 m 0,-81.6 c 0,5.6304 35.168,10.2 78.5,10.2 43.332,0 78.5,-4.5696 78.5,-10.2"
         style="fill:none;stroke:#000000;stroke-width:1;stroke-linecap:round;stroke-linejoin:round;stroke-miterlimit:10;stroke-dasharray:none;stroke-opacity:1"
         id="path897" /></g><g
       id="g899"
       transform="matrix(1,0,0,-1,438,1127)"><text
         transform="translate(782.312,240.5334)"
         style="font-variant:normal;font-weight:normal;font-size:16px;font-family:'Helvetica Neue';-inkscape-font-specification:HelveticaNeue;writing-mode:lr-tb;fill:#000000;fill-opacity:1;fill-rule:nonzero;stroke:none"
         id="text903"><tspan
           x="0 10.368 19.264 32.911999 46.560001 55.152 60.48 68.480003 72.928001 76.480003 85.071999 93.071999 101.664 105.216 109.664 119.152 127.744 132.784"
           y="0"
           sodipodi:role="line"
           id="tspan901">Summary level data</tspan></text></g><g
       id="g905"
       transform="matrix(1,0,0,-1,438,1127)"><text
         transform="translate(796.704,258.9814)"
         style="font-variant:normal;font-weight:normal;font-size:16px;font-family:'Helvetica Neue';-inkscape-font-specification:HelveticaNeue;writing-mode:lr-tb;fill:#000000;fill-opacity:1;fill-rule:nonzero;stroke:none"
         id="text909"><tspan
           x="0 8.592 13.04 22.224001 26.672001 31.120001 39.119999 42.672001 48 56.591999 60.144001 64.592003 72.592003 81.183998 86.512001 90.064003 98.655998 107.552 112.592"
           y="0"
           sodipodi:role="line"
           id="tspan907">e.g. viral variant </tspan></text></g><g
       id="g911"
       transform="matrix(1,0,0,-1,438,1127)"><text
         transform="translate(812.256,277.4294)"
         style="font-variant:normal;font-weight:normal;font-size:16px;font-family:'Helvetica Neue';-inkscape-font-specification:HelveticaNeue;writing-mode:lr-tb;fill:#000000;fill-opacity:1;fill-rule:nonzero;stroke:none"
         id="text915"><tspan
           x="0 4.1440001 13.92 22.816 31.408001 36.736 44.736 54.223999 59.264 67.856003 77.344002"
           y="0"
           sodipodi:role="line"
           id="tspan913">(Encrypted)</tspan></text></g><path
       d="m 1085,872.8038 v 11.1816 h 95.943 v 14.9092 l 33.057,-20.5 -33.057,-20.5 v 14.9092 z"
       style="fill:#ffffff;fill-opacity:1;fill-rule:nonzero;stroke:none"
       id="path917" /><g
       id="g919"
       transform="matrix(1,0,0,-1,438,1127)"><path
         d="m 647,254.1962 v -11.1816 h 95.9432 v -14.9092 l 33.0568,20.5 -33.0568,20.5 v -14.9092 z"
         style="fill:none;stroke:#000000;stroke-width:0.5;stroke-linecap:round;stroke-linejoin:round;stroke-miterlimit:10;stroke-dasharray:none;stroke-opacity:1"
         id="path921" /></g><path
       d="m 1085,982.0975 47,23.5005 v -11.7505 h 277.5 v 11.7505 l 47,-23.5005 -47,-23.5 v 11.75 H 1132 v -11.75 z"
       style="fill:#ffffff;fill-opacity:1;fill-rule:nonzero;stroke:none"
       id="path923" /><g
       id="g925"
       transform="matrix(1,0,0,-1,438,1127)"><path
         d="m 647,144.9025 47,-23.5 v 11.75 h 277.5 v -11.75 l 47,23.5 -47,23.5 v -11.75 H 694 v 11.75 z"
         style="fill:none;stroke:#000000;stroke-width:0.5;stroke-linecap:round;stroke-linejoin:round;stroke-miterlimit:10;stroke-dasharray:none;stroke-opacity:1"
         id="path927" /></g><g
       id="g929"
       transform="matrix(1,0,0,-1,438,1127)"><text
         transform="translate(795.27,150.6785)"
         style="font-variant:normal;font-weight:normal;font-size:16px;font-family:'Helvetica Neue';-inkscape-font-specification:HelveticaNeue;writing-mode:lr-tb;fill:#000000;fill-opacity:1;fill-rule:nonzero;stroke:none"
         id="text933"><tspan
           x="0 10.368 18.959999 27.552 36.448002 41.487999 50.080002 54.528 64.896004 75.264 79.407997"
           y="0"
           sodipodi:role="line"
           id="tspan931">Secure API </tspan></text></g><path
       d="m 675,1092.995 h 422 v 206.0054 H 675 Z"
       style="fill:#ffffbf;fill-opacity:1;fill-rule:nonzero;stroke:none"
       id="path1089" /><g
       id="g1091"
       transform="matrix(1,0,0,-1,438,1127)"><path
         d="M 237,-172 H 659 V 34.0054 H 237 Z"
         style="fill:none;stroke:#000000;stroke-width:1;stroke-linecap:round;stroke-linejoin:round;stroke-miterlimit:10;stroke-dasharray:none;stroke-opacity:1"
         id="path1093" /></g><g
       id="g1095"
       transform="matrix(1,0,0,-1,438,1127)"><text
         transform="translate(398.8677,-152)"
         style="font-variant:normal;font-weight:bold;font-size:17px;font-family:Arial;-inkscape-font-specification:Arial-BoldMT;writing-mode:lr-tb;fill:#000000;fill-opacity:1;fill-rule:nonzero;stroke:none"
         id="text1099"><tspan
           x="0 13.2226 23.606199 33.054798 42.503399 49.112999 59.496601 68.945198 79.328796 88.777397"
           y="0"
           sodipodi:role="line"
           id="tspan1097">Governance</tspan></text></g><g
       id="g1101"
       transform="matrix(1,0,0,-1,438,1127)"><text
         transform="translate(244.0249,-132.4438)"
         style="font-variant:normal;font-weight:normal;font-size:17px;font-family:Arial;-inkscape-font-specification:ArialMT;writing-mode:lr-tb;fill:#000000;fill-opacity:1;fill-rule:nonzero;stroke:none"
         id="text1105"><tspan
           x="0 12.2774 21.7328 26.4554 35.910801 40.6334 50.088799 59.544201 63.321602 72.777 77.499603 86.955002 96.4104 105.8658 115.3212 120.9822 125.7048 130.4274 139.8828 149.3382 154.06081 162.56081 172.0162 181.4716 186.1942 191.85519 201.31059 205.088 209.81059 219.26601 223.9886 228.7112 241.93381 254.2112 265.5502 276.58151 281.30411 290.75949 300.2149 308.7149 318.17029 323.8313 333.28671 342.7421 352.19751 360.69751 370.15289 379.59811 389.0535 398.50891 407.96429"
           y="0"
           sodipodi:role="line"
           id="tspan1103">Data held under the control of ODAP governance and </tspan></text></g><g
       id="g1107"
       transform="matrix(1,0,0,-1,438,1127)"><text
         transform="translate(376.6589,-112.8877)"
         style="font-variant:normal;font-weight:normal;font-size:17px;font-family:Arial;-inkscape-font-specification:ArialMT;writing-mode:lr-tb;fill:#000000;fill-opacity:1;fill-rule:nonzero;stroke:none"
         id="text1111"><tspan
           x="0 9.4554005 17.9554 26.4554 35.910801 44.410801 52.910801 57.6334 67.088799 72.749802 82.2052 90.7052 100.1606 109.616 119.0714 124.7324 134.18781"
           y="0"
           sodipodi:role="line"
           id="tspan1109">access procedures</tspan></text></g><g
       id="g1113"
       transform="matrix(1,0,0,-1,438,1127)"><text
         transform="translate(385.6362,-73.33154)"
         style="font-variant:normal;font-weight:bold;font-size:17px;font-family:Arial;-inkscape-font-specification:Arial-BoldMT;writing-mode:lr-tb;fill:#000000;fill-opacity:1;fill-rule:nonzero;stroke:none"
         id="text1117"><tspan
           x="0 12.2774 21.7328 27.393801 36.849201 41.5718 51.027199 60.482601 69.938004 85.054398 95.438004 100.1606 109.616 119.0714"
           y="0"
           sodipodi:role="line"
           id="tspan1115">Data examples:</tspan></text></g><g
       id="g1119"
       transform="matrix(1,0,0,-1,438,1127)"><text
         transform="translate(242,-53.77539)"
         style="font-variant:normal;font-weight:normal;font-size:17px;font-family:Arial;-inkscape-font-specification:ArialMT;writing-mode:lr-tb;fill:#000000;fill-opacity:1;fill-rule:nonzero;stroke:none"
         id="text1123"><tspan
           x="0 9.4554005 14.178 18.9006 29.284201 38.739601 42.516998 46.294399 51.016998 59.516998 63.294399 68.955399 78.410797 82.188202 86.910797 95.410797 104.8662 114.3216 123.777 133.23241 142.68781 151.18781 154.96519 164.42059 173.87601 178.5986 188.054 197.5094 202.23199"
           y="0"
           sodipodi:role="line"
           id="tspan1121">1. Full viral sequencing data</tspan></text></g><g
       id="g1125"
       transform="matrix(1,0,0,-1,438,1127)"><text
         transform="translate(242,-34.21924)"
         style="font-variant:normal;font-weight:normal;font-size:17px;font-family:Arial;-inkscape-font-specification:ArialMT;writing-mode:lr-tb;fill:#000000;fill-opacity:1;fill-rule:nonzero;stroke:none"
         id="text1129"><tspan
           x="0 9.4554005 14.178 18.9006 31.177999 40.6334 49.1334 53.855999 58.578602 68.033997 77.489403 86.944801 96.4002 101.1228 104.9002 113.4002 121.9002 126.6228 132.2838 145.50639 154.96181 164.41721 177.6398 191.8008 196.52341 208.8008 221.0782 225.8008 230.52341 239.97881 249.4342 258.88959 268.345 273.0676 281.5676 291.02301 294.80042 304.2558 313.71121 318.43381 323.1564 332.61179 337.33441 346.78979 356.24521 361.90619 370.40619"
           y="0"
           sodipodi:role="line"
           id="tspan1127">2. Host genetics (GenOMICC, genotyping, others)</tspan></text></g><g
       id="g1131"
       transform="matrix(1,0,0,-1,438,1127)"><text
         transform="translate(242,-14.66309)"
         style="font-variant:normal;font-weight:normal;font-size:17px;font-family:Arial;-inkscape-font-specification:ArialMT;writing-mode:lr-tb;fill:#000000;fill-opacity:1;fill-rule:nonzero;stroke:none"
         id="text1135"><tspan
           x="0 9.4554005 14.178 18.9006 30.239599 39.695 45.355999 54.811401 58.588799 68.044197 77.499603 85.999603 90.722198 100.1776 109.633 119.0884 123.811 127.5884 141.7494 155.9104 165.3658 174.8212 184.2766 188.054 197.5094 206.9648 210.7422 219.2422 228.6976 232.47501 237.1976 251.3586 260.814 270.26941 278.76941 288.22479 293.8858 303.34119 317.5022 326.95761 336.41299 341.13559 349.63559"
           y="0"
           sodipodi:role="line"
           id="tspan1133">3. Serology and immunological measurements </tspan></text></g><g
       id="g1137"
       transform="matrix(1,0,0,-1,438,1127)"><text
         transform="translate(242,4.893066)"
         style="font-variant:normal;font-weight:normal;font-size:17px;font-family:Arial;-inkscape-font-specification:ArialMT;writing-mode:lr-tb;fill:#000000;fill-opacity:1;fill-rule:nonzero;stroke:none"
         id="text1141"><tspan
           x="0 9.4554005 14.178 18.9006 33.0616 42.516998 46.294399 51.016998 54.794399 64.249802 78.410797 82.188202 90.688202"
           y="0"
           sodipodi:role="line"
           id="tspan1139">4. Multiomics</tspan></text></g><g
       id="g1143"
       transform="matrix(1,0,0,-1,438,1127)"><text
         transform="translate(242,24.44922)"
         style="font-variant:normal;font-weight:normal;font-size:17px;font-family:Arial;-inkscape-font-specification:ArialMT;writing-mode:lr-tb;fill:#000000;fill-opacity:1;fill-rule:nonzero;stroke:none"
         id="text1147"><tspan
           x="0 9.4554005 14.178 18.9006 28.356001 39.695 51.972401 64.249802 68.972397 81.249802 85.972397 90.695 99.195 108.6504 112.4278 121.8832 131.33859 139.83859 144.5612 150.2222 158.7222 162.4996 168.1606 177.616 181.3934 186.116 189.8934 199.3488 208.8042 218.2596"
           y="0"
           sodipodi:role="line"
           id="tspan1145">5. qPCR Ct values (viral load)</tspan></text></g><g
       id="g1149"
       transform="matrix(1,0,0,-1,438,1127)"><text
         transform="translate(236.182,633.6402)"
         style="font-variant:normal;font-weight:bold;font-size:19px;font-family:'Helvetica Neue';-inkscape-font-specification:HelveticaNeue-Bold;writing-mode:lr-tb;fill:#000000;fill-opacity:1;fill-rule:nonzero;stroke:none"
         id="text1153"><tspan
           sodipodi:role="line"
           id="tspan1151"
           x="0"
           y="0">Public Health TRE &quot;Safe Haven&quot;</tspan></text></g><path
       d="m 984.7018,621.2931 -6.7292,8.93 237.5094,178.9758 -8.973,11.907 38.737,3.5221 -14.063,-36.2661 -8.972,11.907 z"
       style="fill:#ffffff;fill-opacity:1;fill-rule:nonzero;stroke:none"
       id="path1155" /><g
       id="g1157"
       transform="matrix(1,0,0,-1,438,1127)" /><path
       d="m 1371.5,873.3038 v 11.1816 h 51.943 v 14.9092 l 33.057,-20.5 -33.057,-20.5 v 14.9092 z"
       style="fill:#ffffff;fill-opacity:1;fill-rule:nonzero;stroke:none"
       id="path1279" /><g
       id="g1281"
       transform="matrix(1,0,0,-1,438,1127)"><path
         d="m 933.5,253.6962 v -11.1816 h 51.9432 v -14.9092 l 33.0568,20.5 -33.0568,20.5 v -14.9092 z"
         style="fill:none;stroke:#000000;stroke-width:0.5;stroke-linecap:round;stroke-linejoin:round;stroke-miterlimit:10;stroke-dasharray:none;stroke-opacity:1"
         id="path1283" /></g><path
       d="M 0.6828477,840.0015 H 452.68285 v 166.8931 H 0.6828477 Z"
       style="fill:#ff9300;fill-opacity:1;fill-rule:nonzero;stroke:none"
       id="path1419" /><g
       id="g1421"
       transform="matrix(1,0,0,-1,438,1127)"><path
         d="m -437.3172,120.1054 h 452 v 166.8931 h -452 z"
         style="fill:none;stroke:#000000;stroke-width:1;stroke-linecap:round;stroke-linejoin:round;stroke-miterlimit:10;stroke-dasharray:none;stroke-opacity:1"
         id="path1423" /></g><g
       id="g1425"
       transform="matrix(1,0,0,-1,438,1127)"><text
         transform="translate(-260.4495,140.1054)"
         style="font-variant:normal;font-weight:bold;font-size:17px;font-family:Arial;-inkscape-font-specification:Arial-BoldMT;writing-mode:lr-tb;fill:#000000;fill-opacity:1;fill-rule:nonzero;stroke:none"
         id="text1429"><tspan
           x="0 13.2226 23.606199 33.054798 42.503399 49.112999 59.496601 68.945198 79.328796 88.777397"
           y="0"
           sodipodi:role="line"
           id="tspan1427">Governance</tspan></text></g><g
       id="g1431"
       transform="matrix(1,0,0,-1,438,1127)"><text
         transform="translate(-399.3672,159.6616)"
         style="font-variant:normal;font-weight:normal;font-size:17px;font-family:Arial;-inkscape-font-specification:ArialMT;writing-mode:lr-tb;fill:#000000;fill-opacity:1;fill-rule:nonzero;stroke:none"
         id="text1435"><tspan
           x="0 12.2774 21.7328 26.4554 35.910801 40.6334 50.088799 58.588799 67.088799 76.544197 85.044197 93.544197 98.2668 103.9278 113.3832 127.5442 136.9996 140.77699 150.23241 158.73241 163.455 172.9104 182.3658 191.8212 201.2766 206.93761 211.6602 216.3828 225.8382 235.29359 240.0162 248.5162 257.97159 267.427 272.1496 277.81061 287.26599 291.0434 295.76599 305.22141 309.944 314.6666 319.38919 328.8446 338.29999 343.02261 352.478 361.93341 366.65601 376.11139"
           y="0"
           sodipodi:role="line"
           id="tspan1433">Data access remains under the control of the data </tspan></text></g><g
       id="g1437"
       transform="matrix(1,0,0,-1,438,1127)"><text
         transform="translate(-361.5447,179.2177)"
         style="font-variant:normal;font-weight:normal;font-size:17px;font-family:Arial;-inkscape-font-specification:ArialMT;writing-mode:lr-tb;fill:#000000;fill-opacity:1;fill-rule:nonzero;stroke:none"
         id="text1441"><tspan
           x="0 8.5 17.9554 27.410801 32.1334 37.794399 41.5718 51.027199 60.482601 65.2052 74.660599 80.321602 85.044197 90.7052 95.427803 104.8832 113.3832 121.8832 131.33859 139.83859 148.33859 153.0612 157.7838 167.2392 175.7392 179.5166 183.29401 187.0714 191.79401 201.2494 205.972 215.4274 224.8828 229.60539 239.06081 247.56081 252.2834 265.50601 277.78339 289.12241"
           y="0"
           sodipodi:role="line"
           id="tspan1439">contributor - access facilitated by ODAP</tspan></text></g><g
       id="g1443"
       transform="matrix(1,0,0,-1,438,1127)"><text
         transform="translate(-273.6809,218.7739)"
         style="font-variant:normal;font-weight:bold;font-size:17px;font-family:Arial;-inkscape-font-specification:Arial-BoldMT;writing-mode:lr-tb;fill:#000000;fill-opacity:1;fill-rule:nonzero;stroke:none"
         id="text1447"><tspan
           x="0 12.2774 21.7328 27.393801 36.849201 41.5718 51.027199 60.482601 69.938004 85.054398 95.438004 100.1606 109.616 119.0714"
           y="0"
           sodipodi:role="line"
           id="tspan1445">Data examples:</tspan></text></g><g
       id="g1449"
       transform="matrix(1,0,0,-1,438,1127)"><text
         transform="translate(-432.3172,238.33)"
         style="font-variant:normal;font-weight:normal;font-size:17px;font-family:Arial;-inkscape-font-specification:ArialMT;writing-mode:lr-tb;fill:#000000;fill-opacity:1;fill-rule:nonzero;stroke:none"
         id="text1453"><tspan
           x="0 9.4554005 14.178 18.9006 31.177999 34.955399 38.7328 48.188202 51.965599 60.465599 69.920998 73.698402 78.420998 83.1436 88.804604 92.582001 102.0374 105.8148 110.5374 119.9928 129.4482 134.17081 143.62621 148.3488 154.0098 166.2872 175.7426 184.2426 193.698 202.198 211.6534 217.31441 225.81441"
           y="0"
           sodipodi:role="line"
           id="tspan1451">1. Clinical trial data (Recovery)</tspan></text></g><g
       id="g1455"
       transform="matrix(1,0,0,-1,438,1127)"><text
         transform="translate(-432.3172,257.8862)"
         style="font-variant:normal;font-weight:normal;font-size:17px;font-family:Arial;-inkscape-font-specification:ArialMT;writing-mode:lr-tb;fill:#000000;fill-opacity:1;fill-rule:nonzero;stroke:none"
         id="text1459"><tspan
           x="0 9.4554005 14.178 18.9006 23.623199 34.9622 46.301201 58.578602 63.301201 75.578598 80.301201 85.962196 95.417603 109.5786 119.034 128.4894 134.15041 143.6058 153.0612 162.5166 171.972 176.6946 181.41721 190.8726 196.5336 201.2562 205.97881 215.4342 221.0952 230.5506 240.006 244.72861 257.00601 266.4614 275.91681 284.41681 292.91681"
           y="0"
           sodipodi:role="line"
           id="tspan1457">2. ISARIC (embargoed for three weeks)</tspan></text></g><g
       id="g1461"
       transform="matrix(1,0,0,-1,438,1127)"><text
         transform="translate(-432.3172,277.4423)"
         style="font-variant:normal;font-weight:normal;font-size:17px;font-family:Arial;-inkscape-font-specification:ArialMT;writing-mode:lr-tb;fill:#000000;fill-opacity:1;fill-rule:nonzero;stroke:none"
         id="text1465"><tspan
           x="0 9.4554005 14.178 18.9006 32.123199 36.845798 46.301201 55.756599 61.417599 66.140198 74.640198 84.095596 93.551003 102.051 105.8284 110.551 114.3284 122.8284 132.2838 137.00639 146.46181 155.91721 160.6398"
           y="0"
           sodipodi:role="line"
           id="tspan1463">3. Other sensitive data</tspan></text></g><g
       id="g1469"
       transform="matrix(0.99920982,0,0,-1.5090983,438.28565,1182.6993)"><path
         d="m 73,109.8556 h 577 v 238 H 73 Z"
         style="fill:none;stroke:#000000;stroke-width:2;stroke-linecap:round;stroke-linejoin:round;stroke-miterlimit:10;stroke-dasharray:none;stroke-opacity:1"
         id="path1471" /></g><g
       id="g1475"
       transform="matrix(0.52064076,0,0,-1.6702571,736.3495,1232.1379)"><path
         d="M 273,157.2967 H 623 V 331.9652 H 273 Z"
         style="fill:none;stroke:#59fa63;stroke-width:2;stroke-linecap:round;stroke-linejoin:round;stroke-miterlimit:10;stroke-dasharray:8, 8;stroke-dashoffset:0;stroke-opacity:1"
         id="path1477" /></g><g
       id="g1479"
       transform="matrix(1,0,0,-1,519,1067)"><text
         transform="translate(366.608,231.9429)"
         style="font-variant:normal;font-weight:bold;font-size:16px;font-family:'Helvetica Neue';-inkscape-font-specification:HelveticaNeue-Bold;writing-mode:lr-tb;fill:#000000;fill-opacity:1;fill-rule:nonzero;stroke:none"
         id="text1483"><tspan
           x="0 11.856 21.632 31.120001 37.632 46.816002 61.312 71.087997 80.272003 86.047997 95.823997 105.6 114.784 124.56 129.008 138.784 147.968 153.60001 162.784"
           y="0"
           sodipodi:role="line"
           id="tspan1481">Non-embargoed data </tspan></text></g><g
       id="g1503"
       transform="matrix(1,0,0,-1,438,1127)"><text
         transform="translate(254.055,144.1054)"
         style="font-variant:normal;font-weight:bold;font-size:19px;font-family:'Helvetica Neue';-inkscape-font-specification:HelveticaNeue-Bold;writing-mode:lr-tb;fill:#000000;fill-opacity:1;fill-rule:nonzero;stroke:none"
         id="text1507"><tspan
           x="0 11.267 16.169001 27.075001 37.278 42.18 53.789001 58.691002 69.597 74.878998 85.785004 97.393997 114.608 126.217 137.48399 144.172 155.078 160.36 170.563 182.172 193.078 203.98399"
           y="0"
           sodipodi:role="line"
           id="tspan1505">Flexible compute space TRE</tspan></text></g><g
       id="g1511"
       transform="matrix(1.9736143,0,0,-1.6793499,348.95444,1233.0403)"><path
         d="M 92,157.2967 H 262 V 331.9652 H 92 Z"
         style="fill:none;stroke:#000000;stroke-width:2;stroke-linecap:round;stroke-linejoin:round;stroke-miterlimit:10;stroke-dasharray:8, 8;stroke-dashoffset:0;stroke-opacity:1"
         id="path1513" /></g><g
       id="g1515"
       transform="matrix(1,0,0,-1,528,1067)"><text
         transform="translate(108.352,221.7027)"
         style="font-variant:normal;font-weight:bold;font-size:16px;font-family:'Helvetica Neue';-inkscape-font-specification:HelveticaNeue-Bold;writing-mode:lr-tb;fill:#000000;fill-opacity:1;fill-rule:nonzero;stroke:none"
         id="text1519"><tspan
           x="0 10.368 24.864 34.639999 43.824001 49.599998 59.375999 69.152 78.335999 88.112 92.559998 102.336 111.52 117.152 126.336"
           y="0"
           sodipodi:role="line"
           id="tspan1517">Embargoed data </tspan></text></g><g
       id="g1521"
       transform="matrix(1,0,0,-1,528,1067)"><text
         transform="translate(239.136,221.7027)"
         style="font-variant:normal;font-weight:bold;font-size:16px;font-family:'Helvetica Neue';-inkscape-font-specification:HelveticaNeue-Bold;writing-mode:lr-tb;fill:#0433ff;fill-opacity:1;fill-rule:nonzero;stroke:none"
         id="text1525"><tspan
           x="0 6.5120001"
           y="0"
           sodipodi:role="line"
           id="tspan1523">- </tspan></text></g><g
       id="g1527"
       transform="matrix(1,0,0,-1,528,1067)"><text
         transform="translate(100.432,241.1669)"
         style="font-variant:normal;font-weight:bold;font-size:16px;font-family:'Helvetica Neue';-inkscape-font-specification:HelveticaNeue-Bold;writing-mode:lr-tb;fill:#0433ff;fill-opacity:1;fill-rule:nonzero;stroke:none"
         id="text1531"><tspan
           x="0 10.672 19.856001 26.08 40.576 44.703999 53.296001 61.888 66.015999 75.792 85.279999 89.727997 95.664001 104.848 114.624 124.112 128.24001 134.17599 143.36 153.136"
           y="0"
           sodipodi:role="line"
           id="tspan1529">Permission required </tspan></text></g><g
       id="g1533"
       transform="matrix(1,0,0,-1,528,1067)"><text
         style="font-variant:normal;font-weight:bold;font-size:16px;font-family:'Helvetica Neue';-inkscape-font-specification:HelveticaNeue-Bold;writing-mode:lr-tb;fill:#0433ff;fill-opacity:1;fill-rule:nonzero;stroke:none"
         id="text1537"
         x="164.032"
         y="260.63101"><tspan
           x="164.032 169.36 179.136 185.36"
           y="260.63101"
           sodipodi:role="line"
           id="tspan1535">for </tspan></text></g><g
       id="g1539"
       transform="matrix(1,0,0,-1,528,1067)"><text
         transform="translate(134.656,280.0951)"
         style="font-variant:normal;font-weight:bold;font-size:16px;font-family:'Helvetica Neue';-inkscape-font-specification:HelveticaNeue-Bold;writing-mode:lr-tb;fill:#0433ff;fill-opacity:1;fill-rule:nonzero;stroke:none"
         id="text1543"><tspan
           x="0 9.776 19.264 29.040001 33.167999 37.296001 46.48 55.664001 61.296001 65.424004 75.199997"
           y="0"
           sodipodi:role="line"
           id="tspan1541">publication</tspan></text></g><g
       id="g1555"
       transform="matrix(1,0,0,-1,438,1127)"><path
         d="M 473.945,49.90537 V 100.3333"
         style="fill:none;stroke:#000000;stroke-width:3;stroke-linecap:round;stroke-linejoin:round;stroke-miterlimit:10;stroke-dasharray:none;stroke-opacity:1"
         id="path1557" /></g><path
       d="m 911.945,1088.295 -4.2,-11.2 h 8.4 z"
       style="fill:#000000;fill-opacity:1;fill-rule:nonzero;stroke:none"
       id="path1559" /><g
       id="g1561"
       transform="matrix(1,0,0,-1,438,1127)"><path
         d="m 473.945,38.70537 -4.2,11.2 h 8.4 z"
         style="fill:none;stroke:#000000;stroke-width:3;stroke-linecap:butt;stroke-linejoin:miter;stroke-miterlimit:10;stroke-dasharray:none;stroke-opacity:1"
         id="path1563" /></g></g></svg>
