<?xml version="1.0" encoding="utf-8"?>
<!-- Generator: Adobe Illustrator 13.0.0, SVG Export Plug-In . SVG Version: 6.00 Build 14948)  -->
<!DOCTYPE svg PUBLIC "-//W3C//DTD SVG 1.1//EN" "http://www.w3.org/Graphics/SVG/1.1/DTD/svg11.dtd">
<svg version="1.1" xmlns="http://www.w3.org/2000/svg" xmlns:xlink="http://www.w3.org/1999/xlink" x="0px" y="0px"
	 width="732.385px" height="233.553px" viewBox="0 0 732.385 233.553" enable-background="new 0 0 732.385 233.553"
	 xml:space="preserve">
<g id="Layer_1">
	<rect id="rect1648" x="0.008" y="0.004" opacity="0" fill="#E82B2A" width="731.684" height="233.541"/>
	<polygon id="polygon1580" fill="none" points="140.727,181.945 113.604,201.662 123.969,233.553 157.504,233.545 167.859,201.65 	
		"/>
	<polygon id="polygon1582" fill="none" points="167.859,31.906 157.504,0.01 123.969,0 113.604,31.893 140.727,51.609 	"/>
	<polygon id="polygon1584" fill="none" points="51.607,116.926 31.911,89.787 0.012,100.129 0,133.666 31.884,144.045 	"/>
	<polygon id="polygon1586" fill="none" points="249.577,144.045 281.463,133.666 281.449,100.129 249.55,89.787 229.854,116.926 	
		"/>
	<g id="g1716">
		<g id="g1666">
			<path id="path1650" fill="#010101" d="M303.803,82.27c-13.222,0-23.222-9.314-23.222-25.471c0-16.229,10-25.473,23.222-25.473
				c13.146,0,23.22,9.242,23.22,25.473C327.022,73.02,316.948,82.27,303.803,82.27z M303.803,40.6
				c-7.628,0-12.592,5.689-12.592,16.199c0,10.508,4.964,16.197,12.592,16.197c7.604,0,12.591-5.689,12.591-16.197
				C316.394,46.289,311.406,40.6,303.803,40.6z"/>
			<path id="path1652" fill="#010101" d="M358.428,44.4h10.313v37.191h-9.896v-6.756h-0.396c-1.67,4.354-5.688,7.24-11.277,7.24
				c-7.479,0-12.565-5.311-12.596-13.996V44.398h10.313V66.24c0.021,4.389,2.543,7.117,6.438,7.117c3.701,0,7.115-2.607,7.1-7.604
				L358.428,44.4L358.428,44.4z"/>
			<path id="path1654" fill="#010101" d="M396.758,52.148h-6.996v18.021c0,2.854,1.429,3.633,3.481,3.633
				c0.974,0,2.063-0.242,2.564-0.34l1.621,7.676c-1.041,0.34-2.933,0.873-5.593,0.969c-7.48,0.316-12.446-3.291-12.396-10.578
				V52.152h-5.084v-7.748h5.084v-8.904h10.314v8.904h6.994L396.758,52.148L396.758,52.148z"/>
			<path id="path1656" fill="#010101" d="M404.435,32.004h10.313v18.645h0.313c1.38-3.021,4.355-6.729,10.581-6.729
				c8.158,0,15.062,6.344,15.062,19.129c0,12.445-6.604,19.152-15.085,19.152c-6.004,0-9.129-3.469-10.558-6.564H414.6v5.957
				h-10.168L404.435,32.004L404.435,32.004z M422.352,73.99c5.063,0,7.82-4.506,7.82-10.986c0-6.441-2.711-10.871-7.82-10.871
				c-5.013,0-7.818,4.229-7.818,10.871C414.531,69.633,417.389,73.99,422.352,73.99z"/>
			<path id="path1658" fill="#010101" d="M447.559,44.4h9.999v6.488h0.388c1.356-4.6,4.771-7.02,8.938-7.02
				c1.04,0,2.317,0.145,3.243,0.355v9.15c-0.974-0.313-2.935-0.563-4.356-0.563c-4.553,0-7.896,3.146-7.896,7.729V81.59h-10.313
				L447.559,44.4L447.559,44.4z"/>
			<path id="path1660" fill="#010101" d="M472.185,63.166c0-11.479,7.097-19.25,18.038-19.25c9.83,0,17.479,6.248,17.479,18.887
				v2.834H482.38v0.023c0,5.545,3.27,8.959,8.425,8.959c3.438,0,6.104-1.479,7.146-4.313l9.541,0.629
				c-1.454,6.902-7.646,11.381-16.854,11.381C479.183,82.32,472.185,74.959,472.185,63.166z M497.993,59.244
				c-0.021-4.438-3.118-7.627-7.604-7.627c-4.576,0-7.797,3.391-8.017,7.627H497.993z"/>
			<path id="path1662" fill="#010101" d="M512.695,71.205c0-8.313,6.607-10.773,13.972-11.451c6.471-0.631,9.013-0.945,9.013-3.344
				v-0.146c0-3.051-2.015-4.818-5.521-4.818c-3.705,0-5.903,1.816-6.604,4.285l-9.539-0.771c1.429-6.779,7.287-11.041,16.192-11.041
				c8.277,0,15.786,3.729,15.786,12.59v25.086h-9.775v-5.158h-0.291c-1.815,3.465-5.377,5.859-10.871,5.859
				C517.948,82.295,512.695,78.566,512.695,71.205z M535.742,68.299v-3.947c-1.23,0.824-4.916,1.357-7.168,1.672
				c-3.633,0.518-6.023,1.939-6.023,4.852c0,2.832,2.271,4.311,5.442,4.311C532.525,75.176,535.742,72.198,535.742,68.299z"/>
			<path id="path1664" fill="#010101" d="M554.005,32.004h10.313v26.514h0.558l11.913-14.113h11.847l-13.807,16.104l14.502,21.09
				h-12.08L567.103,66.61l-2.784,3.18V81.6h-10.313L554.005,32.004L554.005,32.004z"/>
		</g>
		<g id="g1692">
			<path id="path1668" fill="#010101" d="M281.455,141.492V91.904h17.724c14.964,0,24.118,9.303,24.118,24.744
				c0,15.496-9.154,24.85-24.268,24.85L281.455,141.492L281.455,141.492z M298.597,132.51c9.321,0,14.237-4.797,14.237-15.861
				c0-11.018-4.916-15.764-14.219-15.764h-6.686v31.625H298.597z"/>
			<path id="path1670" fill="#010101" d="M329.107,131.104c0-8.305,6.61-10.771,13.973-11.453c6.471-0.629,9.012-0.938,9.012-3.34
				v-0.146c0-3.057-2.015-4.818-5.521-4.818c-3.705,0-5.908,1.816-6.608,4.285l-9.537-0.775c1.43-6.771,7.285-11.037,16.192-11.037
				c8.281,0,15.787,3.729,15.787,12.598V141.5h-9.782v-5.156h-0.287c-1.813,3.463-5.378,5.854-10.871,5.854
				C334.363,142.195,329.107,138.465,329.107,131.104z M352.156,128.198v-3.941c-1.23,0.824-4.917,1.354-7.168,1.672
				c-3.633,0.508-6.023,1.938-6.023,4.842c0,2.834,2.271,4.313,5.443,4.313C348.938,135.076,352.156,132.096,352.156,128.198z"/>
			<path id="path1672" fill="#010101" d="M390.198,112.047h-6.998v18.016c0,2.857,1.434,3.635,3.485,3.635
				c0.97,0,2.061-0.236,2.565-0.342l1.617,7.686c-1.041,0.338-2.93,0.863-5.596,0.969c-7.479,0.313-12.438-3.293-12.396-10.582
				v-19.371h-5.086v-7.748h5.086v-8.91h10.313v8.91h6.998v7.746h0.004v-0.003L390.198,112.047L390.198,112.047z"/>
			<path id="path1674" fill="#010101" d="M395.157,131.104c0-8.305,6.61-10.771,13.977-11.453c6.466-0.629,9.007-0.938,9.007-3.34
				v-0.146c0-3.057-2.009-4.818-5.521-4.818c-3.703,0-5.901,1.816-6.604,4.285l-9.54-0.775c1.43-6.771,7.287-11.037,16.199-11.037
				c8.275,0,15.78,3.729,15.78,12.598V141.5h-9.775v-5.156h-0.292c-1.814,3.463-5.375,5.854-10.871,5.854
				C400.418,142.195,395.157,138.465,395.157,131.104z M418.215,128.198v-3.941c-1.235,0.824-4.916,1.354-7.168,1.672
				c-3.638,0.508-6.028,1.938-6.028,4.842c0,2.834,2.276,4.313,5.446,4.313C414.99,135.076,418.215,132.096,418.215,128.198z"/>
			<path id="path1676" fill="#010101" d="M449.783,141.492l17.12-49.593h13.518l17.094,49.594H486.28l-3.681-11.313h-17.896
				l-3.682,11.313L449.783,141.492L449.783,141.492z M479.959,122l-6.104-18.771h-0.387L467.365,122H479.959z"/>
			<path id="path1678" fill="#010101" d="M513.59,141.492h-10.313v-37.191h9.83v6.563h0.438c1.672-4.334,5.666-7.049,11.188-7.049
				c7.748,0,12.834,5.326,12.834,13.996v23.688h-10.313v-21.846c0.021-4.555-2.477-7.266-6.61-7.266
				c-4.164,0-7.021,2.813-7.048,7.605v21.5H513.59L513.59,141.492L513.59,141.492z"/>
			<path id="path1680" fill="#010101" d="M543.929,131.104c0-8.305,6.604-10.771,13.971-11.453c6.468-0.629,9.011-0.938,9.011-3.34
				v-0.146c0-3.057-2.011-4.818-5.521-4.818c-3.704,0-5.906,1.816-6.607,4.285l-9.539-0.775c1.434-6.771,7.287-11.037,16.197-11.037
				c8.279,0,15.784,3.729,15.784,12.598V141.5h-9.78v-5.156h-0.291c-1.813,3.463-5.375,5.854-10.873,5.854
				C549.184,142.195,543.929,138.465,543.929,131.104z M566.982,128.198v-3.941c-1.233,0.824-4.916,1.354-7.168,1.672
				c-3.633,0.508-6.029,1.938-6.029,4.842c0,2.834,2.277,4.313,5.449,4.313C563.761,135.076,566.982,132.096,566.982,128.198z"/>
			<path id="path1682" fill="#010101" d="M595.553,141.492H585.24V91.904h10.313V141.492z"/>
			<path id="path1684" fill="#010101" d="M603.668,154.373l2.316-7.699c3.634,1.113,6.229,0.945,7.58-2.541l0.604-1.574
				l-13.347-38.258h10.854l7.699,27.313h0.387l7.771-27.313h10.927l-14.457,41.211c-2.104,6.004-6.177,9.928-13.854,9.928
				C607.541,155.438,605.143,155.002,603.668,154.373z"/>
			<path id="path1686" fill="#010101" d="M665.24,115.486c-0.511-2.396-2.641-4.354-6.226-4.354c-3.196,0-5.714,1.453-5.688,3.68
				c-0.021,1.793,1.265,2.98,4.729,3.73l6.729,1.354c7.218,1.479,10.729,4.697,10.751,10.072
				c-0.021,7.338-6.926,12.252-16.562,12.252c-9.854,0-15.908-4.383-16.877-11.502l10.145-0.531c0.63,3.025,3.076,4.604,6.758,4.604
				c3.607,0,6.009-1.572,6.06-3.775c-0.048-1.865-1.525-3.051-4.771-3.705l-6.438-1.283c-7.27-1.445-10.773-5.063-10.749-10.631
				c-0.024-7.166,6.245-11.567,15.763-11.567c9.396,0,14.915,4.231,15.836,11.093L665.24,115.486z"/>
			<path id="path1688" fill="#010101" d="M681.656,94.275c0-2.854,2.521-5.207,5.568-5.207c3.072,0,5.594,2.354,5.594,5.207
				c0,2.889-2.521,5.23-5.594,5.23C684.176,99.506,681.656,97.158,681.656,94.275z M682.048,104.299h10.313v37.188h-10.313V104.299z
				"/>
			<path id="path1690" fill="#010101" d="M722.093,115.486c-0.509-2.396-2.644-4.354-6.228-4.354c-3.191,0-5.717,1.453-5.688,3.68
				c-0.021,1.793,1.262,2.98,4.725,3.73l6.73,1.354c7.215,1.479,10.729,4.697,10.75,10.072c-0.021,7.338-6.93,12.252-16.563,12.252
				c-9.854,0-15.905-4.383-16.877-11.502l10.146-0.531c0.63,3.025,3.07,4.604,6.757,4.604c3.604,0,6.004-1.572,6.055-3.775
				c-0.051-1.865-1.522-3.051-4.771-3.705l-6.44-1.283c-7.263-1.445-10.771-5.063-10.75-10.631
				c-0.021-7.166,6.248-11.567,15.764-11.567c9.396,0,14.915,4.231,15.836,11.093L722.093,115.486z"/>
		</g>
		<g id="g1710">
			<path id="path1694" fill="#010101" d="M281.455,151.807h19.563c11.26,0,17.771,6.949,17.771,16.805
				c0,9.902-6.636,16.707-18.032,16.707h-8.814v16.078h-10.479L281.455,151.807L281.455,151.807z M299.057,176.916
				c6.005,0,8.937-3.396,8.937-8.313c0-4.938-2.931-8.229-8.979-8.229h-7.07v16.539L299.057,176.916L299.057,176.916z"/>
			<path id="path1696" fill="#010101" d="M335.74,201.396h-10.313v-49.59h10.313V201.396z"/>
			<path id="path1698" fill="#010101" d="M342.232,191.008c0-8.305,6.608-10.775,13.971-11.453c6.472-0.629,9.007-0.941,9.007-3.342
				v-0.146c0-3.049-2.009-4.813-5.521-4.813c-3.705,0-5.907,1.813-6.609,4.285l-9.541-0.773c1.436-6.781,7.289-11.043,16.199-11.043
				c8.281,0,15.787,3.73,15.787,12.592V201.4h-9.783v-5.152h-0.29c-1.813,3.463-5.375,5.854-10.871,5.854
				C347.486,202.098,342.232,198.371,342.232,191.008z M365.281,188.102v-3.945c-1.229,0.822-4.916,1.355-7.168,1.676
				c-3.633,0.51-6.021,1.938-6.021,4.844c0,2.834,2.271,4.313,5.441,4.313C362.062,194.979,365.281,192,365.281,188.102z"/>
			<path id="path1700" fill="#010101" d="M403.322,171.953h-6.998v18.014c0,2.857,1.435,3.633,3.486,3.633
				c0.971,0,2.06-0.24,2.565-0.338l1.618,7.674c-1.043,0.34-2.932,0.873-5.596,0.979c-7.479,0.313-12.438-3.293-12.396-10.582
				V171.96h-5.088v-7.748h5.088v-8.91h10.313v8.91h6.996v7.748h0.004v-0.003L403.322,171.953L403.322,171.953z"/>
			<path id="path1702" fill="#010101" d="M430.029,171.953h-7.387v29.438h-10.313v-29.438h-5.255v-7.748h5.255v-2.689
				c0-8.086,5.205-12.031,12.203-12.031c3.172,0,6.006,0.631,7.289,1.021l-1.813,7.748c-0.823-0.271-2.082-0.531-3.316-0.531
				c-3.025,0-4.045,1.475-4.045,3.994v2.494h7.387L430.029,171.953L430.029,171.953z"/>
			<path id="path1704" fill="#010101" d="M433.516,182.945c0-11.521,7.021-19.227,18.309-19.227
				c11.281,0,18.311,7.701,18.311,19.227c0,11.451-7.021,19.184-18.311,19.184C440.533,202.123,433.516,194.396,433.516,182.945z
				 M459.643,182.873c0-6.488-2.662-11.283-7.771-11.283c-5.205,0-7.863,4.795-7.863,11.283c0,6.484,2.658,11.26,7.863,11.26
				C456.982,194.131,459.643,189.363,459.643,182.873z"/>
			<path id="path1706" fill="#010101" d="M476.861,164.205h10v6.482h0.387c1.354-4.602,4.771-7.021,8.938-7.021
				c1.04,0,2.323,0.146,3.244,0.361v9.146c-0.971-0.313-2.935-0.557-4.357-0.557c-4.553,0-7.895,3.146-7.895,7.725v21.043h-10.314
				L476.861,164.205L476.861,164.205z"/>
			<path id="path1708" fill="#010101" d="M504.729,164.205h9.832v6.561h0.438c1.555-4.381,5.354-7.045,10.361-7.045
				c5.109,0,8.91,2.736,10.1,7.045h0.392c1.521-4.26,5.765-7.045,11.212-7.045c6.924,0,11.719,4.602,11.719,12.664v25.012H548.49
				v-22.979c0-4.146-2.469-6.197-5.763-6.197c-3.752,0-5.956,2.615-5.956,6.463v22.713h-10v-23.189c0-3.654-2.277-5.98-5.666-5.98
				c-3.438,0-6.054,2.734-6.054,6.854v22.316h-10.32L504.729,164.205L504.729,164.205z"/>
		</g>
		<path id="path1712" fill="none" d="M259.576,151.807v-10.313h49.582v10.313H259.576z"/>
		<path id="path1714" fill="none" d="M259.574,91.908V81.594h232.264v10.314H259.574z"/>
	</g>
	<g>
		<g>
			<polygon fill="#E82B2A" points="185.347,84.365 212.918,64.336 202.387,31.925 168.31,31.925 157.779,64.336 			"/>
			<polygon opacity="0.6" fill="#E82B2A" points="68.562,64.336 96.131,84.365 110.073,74.238 79.094,31.925 			"/>
			<polygon opacity="0.8" fill="#E82B2A" points="123.699,64.336 123.699,64.336 123.701,64.336 113.171,31.925 79.094,31.925 
				110.073,74.238 123.699,64.337 			"/>
			<polygon fill="#E82B2A" points="123.697,169.216 96.129,149.186 68.559,169.216 79.089,201.625 113.166,201.625 113.166,201.625 
				113.166,201.625 			"/>
			<polygon opacity="0.4" fill="#E82B2A" points="96.129,84.365 68.562,64.336 40.991,84.365 51.522,116.776 85.599,116.776 			"/>
			<polygon fill="#E82B2A" points="140.74,41.066 113.171,31.925 123.701,64.336 157.779,64.336 			"/>
			<polygon opacity="0.8" fill="#E82B2A" points="140.741,11.895 113.171,31.925 140.74,41.066 168.31,31.925 			"/>
			<polygon opacity="0.6" fill="#E82B2A" points="157.779,64.336 168.31,31.925 140.74,41.066 			"/>
			<polygon opacity="0.8" fill="#E82B2A" points="157.777,169.216 157.777,169.216 157.775,169.216 168.305,201.625 
				185.344,178.357 185.346,149.186 			"/>
			<polygon opacity="0.6" fill="#E82B2A" points="185.346,149.186 185.346,149.186 185.344,178.357 212.914,169.216 
				185.346,149.186 			"/>
			<polygon fill="#E82B2A" points="185.344,178.357 168.305,201.625 202.383,201.625 212.914,169.216 			"/>
			<polygon opacity="0.4" fill="#E82B2A" points="96.129,149.186 85.599,116.776 68.56,140.047 			"/>
			<polygon opacity="0.6" fill="#E82B2A" points="68.56,140.047 68.559,169.216 96.129,149.186 			"/>
			<polygon opacity="0.8" fill="#E82B2A" points="51.522,116.776 40.99,149.186 68.559,169.216 68.56,140.047 			"/>
			<polygon opacity="0.6" fill="#E82B2A" points="85.599,116.776 51.522,116.776 68.56,140.047 			"/>
			<polygon opacity="0.4" fill="#E82B2A" points="140.734,221.655 168.304,201.625 157.775,169.216 140.734,169.216 			"/>
			<polygon opacity="0.8" fill="#E82B2A" points="123.697,169.216 113.166,201.625 140.734,221.655 140.734,169.216 			"/>
			<polygon opacity="0.6" fill="#E82B2A" points="190.708,100.866 240.487,84.365 212.918,64.336 185.347,84.365 			"/>
			<polygon opacity="0.4" fill="#E82B2A" points="190.708,100.866 195.877,116.776 229.955,116.776 240.487,84.365 			"/>
			<polygon opacity="0.8" fill="#E82B2A" points="229.955,116.776 195.877,116.776 194.61,120.679 185.346,149.186 212.914,169.216 
				240.485,149.186 			"/>
			<polygon opacity="0" fill="#E82B2A" points="130.206,149.186 140.737,116.776 113.169,96.746 85.599,116.776 96.129,149.186 			
				"/>
			<polygon fill="#E82B2A" points="179.872,132.344 174.814,116.776 140.737,116.776 130.206,149.186 143.835,159.088 
				145.007,159.939 157.775,169.216 185.346,149.186 			"/>
			<polygon opacity="0.4" fill="#E82B2A" points="157.779,64.339 157.779,64.336 123.701,64.336 118.495,80.358 118.047,81.735 
				113.171,96.746 140.74,116.776 155.068,106.365 168.308,96.746 			"/>
			<polyline opacity="0.8" fill="#E82B2A" points="157.777,64.336 185.346,102.645 190.708,100.866 185.347,84.365 157.779,64.336 
							"/>
			<polygon opacity="0.6" fill="#E82B2A" points="190.708,100.866 185.346,102.645 185.346,149.186 194.61,120.679 195.877,116.776 
							"/>
			<polygon fill="#E82B2A" points="168.308,96.746 185.346,102.645 157.777,64.336 			"/>
			<polygon opacity="0.4" fill="#E82B2A" points="174.814,116.776 179.873,132.342 185.346,149.186 185.346,102.645 			"/>
			<polygon opacity="0.8" fill="#E82B2A" points="140.737,116.776 174.814,116.776 185.346,102.645 168.308,96.746 			"/>
			<polyline opacity="0.8" fill="#E82B2A" points="118.531,80.245 123.699,64.337 110.073,74.238 96.129,84.365 85.599,116.776 
				113.169,96.746 118.526,80.262 			"/>
			<polygon opacity="0.8" fill="#E82B2A" points="143.835,159.088 130.206,149.186 96.129,149.186 123.697,169.216 157.775,169.216 
							"/>
		</g>
		<path fill="#FFFFFF" d="M230.314,116.872l10.436-32.104l0.149-0.46l-0.39-0.284l-27.308-19.838L202.622,31.63h-34.221
			l-0.067-0.047l-27.643-20.074l-0.223,0.165l-27.418,19.915l-0.058,0.041H78.769l-0.152,0.463L68.181,64.188L40.486,84.309
			l10.451,32.171l0.128,0.393l-0.021,0.065L40.479,149.43l27.638,20.077l0.064,0.049l0.125,0.386l10.454,32.171h34.236
			l27.299,19.838l0.393,0.283l0.232-0.164l0.158-0.116l26.973-19.6l0.332-0.241h34.239l10.557-32.497l0.021-0.064l0.333-0.242
			l27.366-19.877L230.314,116.872z M193.302,175.388l-7.613,2.523v-27.863l26.333,19.132L193.302,175.388z M113.733,32.631
			l16.727,5.545l9.994,3.314l3.675,5.021L156.96,64.04h-33.02l-0.079-0.244l-5.188-15.96L113.733,32.631z M158.469,35.676
			l9.183-3.043l-6.72,20.684l-3.337,10.264L146.68,48.679l-5.355-7.316L158.469,35.676z M118.857,80.463l5.081-15.642h33.507
			l10.356,31.866l-27.11,19.698l-1.604-1.166l-25.504-18.531l2.993-9.208l1.795-5.528l0.216-0.665l0.262-0.811L118.857,80.463z
			 M184.969,84.707l5.203,16.009l-0.399,0.131l-4.084,1.352l-0.232,0.078l-0.149-0.208l-25.839-35.892l7.577,5.504L184.969,84.707z
			 M184.906,103.92v42.886l-4.709-14.489l-4.996-15.375l2.527-3.393L184.906,103.92z M168.575,96.535l-9.692-29.833l25.379,35.263
			l-10.277-3.557L168.575,96.535z M155.25,106.776l13.078-9.501l5.568,1.928l10.768,3.729l-4.663,6.26l-5.431,7.286l-21.786,0.003
			h-10.893l7.869-5.718L155.25,106.776z M130.621,149.13l2.365-7.285l7.988-24.583h33.51l1.082,3.333l3.886,11.964l5.385,16.572
			l-2.444,1.775l-24.663,17.917l-13.715-9.958L130.621,149.13z M185.692,103.021l0.244-0.081l4.478-1.486l5.004,15.416l-1.225,3.78
			l-8.5,26.161V103.021z M113.124,97.323l26.903,19.545l0.204,0.149l-0.079,0.244l-10.277,31.625H96.367l-7.229-22.248l-3.127-9.622
			l15.343-11.146L113.124,97.323z M84.782,117.26l-14.349,19.596l-1.92,2.622L52.244,117.26H84.782z M69.144,139.941l16.272-22.222
			l2.518,7.748l7.537,23.198l-21.255-7.042L69.144,139.941z M130.033,149.671l1.396,1.015l12.13,8.814l5.578,4.052l7.382,5.365
			h-32.743l-26.491-19.246H130.033z M158.399,169.309l26.51-19.261l-0.003,28.278l-16.51,22.543L158.264,169.7l-0.076-0.237
			L158.399,169.309z M110.256,74.649l11.959-8.692l0.698-0.506l-4.8,14.765h0.003l-0.037,0.116l-0.451,1.377l-4.837,14.886
			l-23.608,17.153l-2.89,2.099l9.165-28.202l0.954-2.938v-0.001l7.257-5.272L110.256,74.649z M68.903,168.542v-27.859l7.443,2.466
			l18.89,6.263l-5.706,4.144L68.903,168.542z M239.829,85.073l-10.207,31.405h-33.507l-0.21-0.646l-4.754-14.622l46.013-15.253
			L239.829,85.073z M190.912,100.466l-5.154-15.858l9.037-6.565l18.077-13.133l26.72,19.417L190.912,100.466z M212.408,64.279
			l-27.107,19.696l-27.11-19.695l5.313-16.353l5.044-15.516h33.508L212.408,64.279z M140.697,12.474l26.717,19.413l-21.73,7.207
			l-4.992,1.655l-5.303-1.757l-21.42-7.103L140.697,12.474z M112.843,32.408l1.259,3.878l9.092,27.994l-13.081,9.505L79.817,32.408
			H112.843z M79.183,32.865l7.775,10.619l22.517,30.763l-7.196,5.229l-6.196,4.5l-10.384-7.543L68.973,64.281L79.183,32.865z
			 M41.406,84.61l27.107-19.697l27.11,19.698l-10.356,31.866H51.756L41.406,84.61z M51.61,117.716l16.418,22.426l0.091,0.126v11.849
			l-0.003,16.423l-26.714-19.408L51.61,117.716z M112.834,201.326H79.326L68.97,169.458l27.113-19.694l19.28,14.008l7.827,5.687
			l-9,27.694L112.834,201.326z M140.295,220.982l-26.714-19.408l10.354-31.873h16.36V220.982z M141.078,169.702h16.364
			l10.356,31.871l-26.72,19.408V169.702z M202.052,201.326H169.03l16.51-22.545l11.286-3.742l15.431-5.116L202.052,201.326z
			 M212.869,168.824l-11.762-8.54l-15.349-11.151l9.177-28.238l1.179-3.631h33.507l10.356,31.868L212.869,168.824z"/>
	</g>
</g>
<g id="Layer_2">
</g>
</svg>
